<svg role="img" viewBox="0 0 24 24" xmlns="http://www.w3.org/2000/svg" fill="#fff"><title>AntV</title><path d="m6.146 1.465-1.175.005-3.433-.003a2 2 0 0 0-.16.004v-.003h-.001l-.051.004h-.014l-.063.009-.015.002-.048.009-.018.004-.06.013-.005.002-.054.015-.019.006-.042.014-.017.006-.054.021-.019.009-.036.016-.021.01-.043.022-.023.013-.035.02-.023.014-.028.018-.022.014a2 2 0 0 0-.112.085l-.022.019-.04.037-.017.016-.025.025-.015.015-.05.056-.004.006-.024.029-.012.015-.023.03-.005.008-.044.064-.008.013-.02.033-.008.014-.006.01a1.4 1.4 0 0 0-.18.688c0 .266.074.514.201.726L.252 3.6l.125.217 10.38 17.98a1.4 1.4 0 0 0 .42.477l.006.004.07.047h.001l.033.02.016.01a1.3 1.3 0 0 0 .2.094l.023.008.04.013.017.006a1 1 0 0 0 .123.032l.01.002.059.01.017.003.058.007h.004a1 1 0 0 0 .143.008h.012a2 2 0 0 0 .13-.007h.003a1 1 0 0 0 .133-.02l.008-.002.058-.014.018-.004.047-.014.013-.003.053-.019.02-.007a1.5 1.5 0 0 0 .224-.108l.027-.016a1 1 0 0 0 .071-.048l.014-.01.03-.022.013-.01q.048-.04.092-.08l.007-.007q.047-.045.09-.093l.002-.004a1.375 1.375 0 0 0 .157-.22h.003l.278-.482.06-.106.002.001 5.745-9.95a1.3 1.3 0 0 0 .198-.689 1.298 1.298 0 0 0-2.437-.623l-4.783 8.285a.327.327 0 0 1-.554.018L8.69 13.02a1.3 1.3 0 0 0-.087-.173L3.831 4.56a.33.33 0 0 1-.05-.174.33.33 0 0 1 .309-.327h9.506q.05.004.101.004a1.3 1.3 0 0 0 .008-2.599zm11.502 0a1.3 1.3 0 1 0 .102 2.595h2.215a.33.33 0 0 1 .283.325.3.3 0 0 1-.019.109l-1.168 2.023a1.3 1.3 0 0 0-.168.64 1.3 1.3 0 0 0 2.45.605l2.416-4.185q.033-.059.061-.119l.003-.005.032-.077.001-.004.013-.036.007-.019.016-.05.008-.03a2 2 0 0 0 .03-.14l.003-.02.007-.054v-.008q.004-.03.006-.062v-.016l.002-.065c0-.777-.63-1.407-1.407-1.407h-.005zm-13.06.078-.108.038zm-.369.16-.1.057zm-.4.303a1.8 1.8 0 0 0-.207.26q.091-.14.206-.26zm-.213.27a2 2 0 0 0-.149.286q.062-.15.149-.285zm-.153.3a2 2 0 0 0-.091.307q.03-.16.09-.308zm-.093.32a2 2 0 0 0-.031.324q0-.166.03-.324zm.024.76v.004zm6.39 3.648a.633.633 0 0 0-.633.634c0 .11.028.218.085.316l2.394 4.148a.634.634 0 0 0 1.098 0l2.394-4.148a.63.63 0 0 0 .085-.316.634.634 0 0 0-.634-.634z"/></svg>
